The creative minds behind Disney/Pixar's groundbreaking animated blockbusters invite you back inside the toy box for a heartwarming and hilarious movie experience you'll never forget. In Toy Story 3, Woody (voiced by Tom Hanks), Buzz Lightyear (voiced by Tim Allen) and the rest of the Toy Story gang return for an all-new adventure, along with a few new faces - some plastic, some plush - including Barbie's counterpart Ken (voiced by Michael Keaton), a thespian hedgehog named Mr. Pricklepants (voiced by Timothy Dalton) and a strawberry-scented bear named Lots-O'-Huggin' Bear (voiced by Ned Beatty).

As Andy prepares to depart for college, Woody, Buzz, Jessie and the rest of Andy's faithful toys wonder what will become of them. But, when a mix-up lands them at Sunnyside Daycare, they meet a host of new toys and soon discover a wild new adventure is just beginning. Buzzing with hours of bonus features, including the Pixar short film Day & Night, Toy Story 3 goes to infinity and beyond!

Format : MPEG-4
Format profile : Base Media / Version 2
Codec ID : mp42
File size : 1.49 GiB
Duration : 1h 38mn
Overall bit rate : 2 164 Kbps
Encoded date : UTC 2010-11-26 06:59:55
Tagged date : UTC 2010-11-26 09:31:58
Writing application : HandBrake 0.9.3 2008112300

Video
ID : 1
Format : AVC
Format/Info : Advanced Video Codec
Format profile : Main@L4.0
Format settings, CABAC : Yes
Format settings, ReFrames : 3 frames
Codec ID : avc1
Codec ID/Info : Advanced Video Coding
Duration : 1h 38mn
Bit rate mode : Variable
Bit rate : 2 000 Kbps
Width : 720 pixels
Height : 570 pixels
Display aspect ratio : 16:9
Frame rate mode : Variable
Frame rate : 25.000 fps
Minimum frame rate : 12.500 fps
Maximum frame rate : 25.000 fps
Color space : YUV
Chroma subsampling : 4:2:0
Bit depth : 8 bits
Scan type : Progressive
Bits/(Pixel*Frame) : 0.195
Stream size : 1.37 GiB (92%)
Writing library : x264 core 65

Language : English
Encoded date : UTC 2010-11-26 06:59:55
Tagged date : UTC 2010-11-26 09:31:58
Color primaries : BT.601-6 525, BT.1358 525, BT.1700 NTSC, SMPTE 170M
Transfer characteristics : BT.709-5, BT.1361
Matrix coefficients : BT.601-6 525, BT.1358 525, BT.1700 NTSC, SMPTE 170M

Audio
ID : 2
Format : AAC
Format/Info : Advanced Audio Codec
Format version : Version 4
Format profile : LC
Codec ID : 40
Duration : 1h 38mn
Bit rate mode : Variable
Bit rate : 160 Kbps
Maximum bit rate : 217 Kbps
Channel(s) : 2 channels
Channel positions : Front: L R
Sampling rate : 48.0 KHz
Stream size : 112 MiB (7%)
Language : English
Encoded date : UTC 2010-11-26 06:59:55
Tagged date : UTC 2010-11-26 09:31:54
